<svg width="362" height="312" viewBox="0 0 362 312" fill="none" xmlns="http://www.w3.org/2000/svg">
<path d="M250.813 206.668C240.926 171.412 236.739 134.929 235.811 121.474L202.771 123.68C205.154 159.03 213.905 198.18 218.06 214.58C232.229 209.912 245.478 207.364 250.813 206.668Z" fill="black"/>
<path d="M107.621 144.518L79.8304 141.026C77.4533 159.384 75.1494 203.296 79.2582 234.15C86.6877 233.73 102.711 232.889 107.368 232.889C103.246 205.467 105.338 162.146 107.621 144.518Z" fill="black"/>
<path d="M285.274 233.911C281.356 209.096 283.253 168.797 285.326 152.547L260.474 149.377C258.392 165.692 256.374 204.24 259.738 232.132C265.298 232.601 278.189 233.615 285.274 233.911Z" fill="black"/>
<path d="M159.577 77C155.698 107.338 151.938 179.785 158.585 230.892C170.254 230.69 195.853 230.407 204.891 230.892C197.809 185.556 201.271 112.358 205.052 82.7865L181.052 79.7326C181.052 79.7326 179.825 83.8594 178.522 100.104C174.719 102.972 171.648 104.837 171.648 104.837C171.648 104.837 167.472 99.9656 166.08 97.8778C166.385 88.1147 168.405 78.1234 168.405 78.1234L159.577 77Z" fill="black"/>
<path d="M156.418 111.61L124.689 105.06C116.65 144.614 111.958 192.559 113.403 232.759C122.661 232.339 142.416 231.497 147.365 231.497C145.837 196.25 146.732 160.364 156.418 111.61Z" fill="black"/>
<path d="M222.697 230.682L258.856 231.894C258.856 231.894 255.374 222.61 253.099 214.735C244.171 216.011 230.228 219.255 220.273 222.648C220.758 224.568 222.001 228.594 222.697 230.682Z" fill="black"/>
</svg>
