<svg width="624" height="329" viewBox="0 0 624 329" fill="none" xmlns="http://www.w3.org/2000/svg">
<path d="M522.536 161.866C520.964 174.192 519.604 204.424 522.576 223.247L503.803 226.213C500.44 204.917 502.077 172.181 503.766 158.939C503.766 158.939 507.166 162.479 512.823 163.315C518.481 164.151 522.536 161.866 522.536 161.866Z" fill="black"/>
<path d="M525.858 146.604C525.858 152.435 521.131 157.162 515.301 157.162C509.47 157.162 504.743 152.435 504.743 146.604C504.743 140.773 509.47 136.046 515.301 136.046C521.131 136.046 525.858 140.773 525.858 146.604Z" fill="black"/>
<path d="M445.154 149.351C441.894 140.908 437.002 133.629 433.334 130.805C447.295 130.529 455.141 130.426 459.402 130.529C462.624 114.976 465.284 106.903 467.612 97.7792C467.612 97.7792 477.925 100.444 485.987 102.657C483.21 112.649 478.851 131.749 478.851 131.749C487.847 132.517 499.045 133.845 503.493 134.534C501.106 136.83 498.944 140.591 498.557 144.464C498.087 149.174 499.184 151.649 499.769 153.201C499.769 153.201 487.419 151.431 472.429 150.247C457.44 149.063 445.154 149.351 445.154 149.351Z" fill="black"/>
<path d="M402.204 132.315C409.388 128.757 418.421 128.5 426.695 133.724C431.691 136.879 435.134 142.432 437.537 147.661C440.099 153.236 442.174 160.002 443.686 167.298C446.706 181.872 447.706 199.663 445.148 216.372C444.874 218.161 444.557 219.943 444.198 221.713L444.21 221.741C444.203 221.744 444.196 221.747 444.189 221.75C444.18 221.797 444.172 221.845 444.162 221.892L443.888 221.877C442.271 222.581 440.68 223.23 439.115 223.822C438.556 224.033 437.999 224.237 437.446 224.434C424.402 229.093 412.872 229.987 403.475 227.437C393.91 224.841 386.754 218.649 383.725 210.229C380.806 202.117 381.048 192.145 384.314 183.977C387.67 175.587 395.219 167.255 407.46 167.461C414.946 167.587 420.98 170.509 425.742 174.678C425.534 173.482 425.317 172.305 425.078 171.154C423.771 164.846 422.077 159.528 420.27 155.596C419.368 153.635 418.508 152.167 417.758 151.144C417.001 150.11 416.554 149.798 416.548 149.793C414.276 148.359 412.322 148.511 410.64 149.344C408.637 150.336 407.237 152.234 406.865 153.913L388.313 149.797C389.999 142.193 395.343 135.715 402.204 132.315ZM407.141 186.462C405.34 186.432 403.465 187.269 401.959 191.034C400.364 195.022 400.311 200.194 401.606 203.796C402.268 205.633 404.067 207.907 408.452 209.097C411.787 210.002 416.656 210.237 423.198 208.812C421.841 203.491 419.99 198.498 417.647 194.529C414.132 188.574 410.596 186.52 407.141 186.462Z" fill="black"/>
<path d="M376.291 163.713C369.54 166.648 354.934 174.324 344.453 184.698C346.296 187.532 349.187 190.891 353.497 193.851C358.397 197.216 365.447 200.288 375.452 201.297C375.452 201.297 375.799 206.327 377.292 211.077C378.786 215.828 382.217 220.647 382.217 220.647C365.038 220.577 352.136 215.971 342.738 209.516C331.829 202.025 326.262 192.469 324.086 186.184L322.342 181.149L325.73 177.035C339.005 160.916 360.204 149.985 368.715 146.284L376.291 163.713Z" fill="black"/>
<path d="M342.231 105.879C336.331 129.144 334.456 179.42 341.594 219.802C341.675 220.261 341.758 220.719 341.841 221.175L323.147 224.594C323.057 224.1 322.969 223.605 322.881 223.109C315.376 180.65 317.12 127.592 323.811 101.206L342.231 105.879Z" fill="black"/>
<path d="M311.904 163.191C311.369 175.606 312.487 205.966 317.024 224.475L298.565 229C293.432 208.06 292.338 175.489 292.913 162.153C292.913 162.153 296.428 165.177 302.106 165.578C307.785 165.978 311.904 163.191 311.904 163.191Z" fill="black"/>
<path d="M313.706 147.833C314.193 153.643 309.879 158.749 304.068 159.237C298.258 159.724 293.152 155.41 292.665 149.599C292.177 143.789 296.491 138.683 302.302 138.195C308.112 137.708 313.218 142.022 313.706 147.833Z" fill="black"/>
<path d="M229.109 143.869C225.009 131.206 217.901 125.976 215.619 124.533C228.124 123.794 246.588 126.1 250.535 126.586C253.867 117.51 257.929 105.886 260.118 101.134C260.118 101.134 269.208 104.483 277.754 108.092C272.324 121.811 269.553 129.853 269.553 129.853C279.439 131.916 288.632 134.881 292.105 136.059C285.851 141.462 285.474 149.44 287.333 154.481C256.687 144.95 234.25 143.975 229.109 143.869Z" fill="black"/>
<path d="M242.53 151.223C248.803 151.971 257.218 153.379 261.39 154.339C255.704 173.203 252.268 189.153 253.377 198.965C257.892 195.476 261.754 191.029 263.343 189.05L277.999 201.129C271.321 208.581 258.156 224.601 245.06 218.328C226.823 209.593 235.733 174.621 242.53 151.223Z" fill="black"/>
<path d="M188.992 127.277C196.438 124.307 205.462 124.779 213.289 130.651C218.245 134.369 221.32 140.603 223.324 146.383C225.469 152.57 226.98 160.014 227.814 167.963C229.472 183.764 228.573 202.752 223.664 219.76L223.674 219.789C223.668 219.791 223.66 219.793 223.654 219.795C223.64 219.842 223.629 219.89 223.615 219.937L223.339 219.901C208.202 225.078 195.228 225.899 184.974 222.956C174.452 219.935 166.862 212.861 164.31 203.455C162.052 195.135 163.096 185.214 167.008 177.335C171.027 169.241 179.221 161.543 191.407 162.732C198.869 163.46 204.639 166.847 209.048 171.39C209.003 170.905 208.964 170.423 208.914 169.945C208.188 163.03 206.919 157.079 205.369 152.608C204.596 150.377 203.809 148.677 203.091 147.473C202.365 146.256 201.901 145.866 201.885 145.852C199.736 144.239 197.776 144.233 196.032 144.928C193.956 145.756 192.408 147.535 191.901 149.179L173.74 143.587C176.032 136.143 181.879 130.114 188.992 127.277ZM189.562 181.645C187.769 181.47 185.831 182.155 184.028 185.787C182.118 189.634 181.648 194.785 182.65 198.479C183.192 200.475 185.029 203.201 190.217 204.69C193.436 205.614 197.917 206.008 203.77 205.22C202.97 200.535 201.774 196.015 200.122 192.148C196.961 184.751 193.267 182.006 189.562 181.645Z" fill="black"/>
<path d="M117.243 142.14C116.745 133.431 116.269 114.05 116.385 104.388L135.408 104.442C135.242 111.159 135.587 127.469 135.975 136.455C144.14 134.426 156.098 131.617 161.938 130.576L163.499 149.657C136.555 155.208 117.359 161.857 105.564 166.078L99.0879 148.154C102.857 146.777 112.499 143.459 117.243 142.14Z" fill="black"/>
<path d="M119.056 168.002C124.195 166.148 133.354 163.316 137.646 162.349C140.479 190.532 142.826 197.844 146.891 206.651C149.511 202.147 151.355 196.958 152.352 193.656L156.808 195.08C157.301 207.599 161.179 212.462 163.847 216.431C160.435 221.084 154.501 229.675 143.686 227.254C130.177 224.23 122.571 204.111 119.056 168.002Z" fill="black"/>
<path d="M466.785 223.882C445.301 218.408 451.04 178.961 454.743 155.68C461.767 155.896 470.035 156.364 473.906 156.716C468.135 191.075 470.646 200.439 471.293 203.128C473.895 200.769 478.128 195.104 479.887 192.113L495.991 202.285C490.257 210.48 479.472 227.114 466.785 223.882Z" fill="black"/>
</svg>
