<svg width="624" height="329" viewBox="0 0 624 329" fill="none" xmlns="http://www.w3.org/2000/svg">
<path d="M522.536 161.866C520.964 174.192 519.604 204.424 522.576 223.247L503.803 226.213C500.44 204.917 502.077 172.181 503.766 158.939C503.766 158.939 507.166 162.479 512.823 163.315C518.481 164.151 522.536 161.866 522.536 161.866Z" fill="white"/>
<path d="M525.858 146.604C525.858 152.435 521.131 157.162 515.301 157.162C509.47 157.162 504.743 152.435 504.743 146.604C504.743 140.773 509.47 136.046 515.301 136.046C521.131 136.046 525.858 140.773 525.858 146.604Z" fill="white"/>
<path d="M445.154 149.351C441.894 140.908 437.002 133.629 433.334 130.805C447.295 130.529 455.141 130.426 459.402 130.529C462.624 114.976 465.284 106.903 467.612 97.7792C467.612 97.7792 477.925 100.444 485.987 102.657C483.21 112.649 478.851 131.749 478.851 131.749C487.847 132.517 499.045 133.845 503.493 134.534C501.106 136.83 498.944 140.591 498.557 144.464C498.087 149.174 499.184 151.649 499.769 153.201C499.769 153.201 487.419 151.431 472.429 150.247C457.44 149.063 445.154 149.351 445.154 149.351Z" fill="white"/>
<path d="M402.205 132.315C409.389 128.757 418.422 128.5 426.696 133.724C431.692 136.879 435.135 142.432 437.538 147.661C440.1 153.236 442.175 160.002 443.687 167.298C446.707 181.872 447.707 199.663 445.149 216.372C444.875 218.161 444.558 219.943 444.199 221.713L444.211 221.741C444.204 221.744 444.197 221.747 444.19 221.75C444.181 221.797 444.173 221.845 444.163 221.892L443.889 221.877C442.271 222.581 440.681 223.23 439.116 223.822C438.557 224.033 438 224.237 437.447 224.434C424.403 229.093 412.873 229.987 403.476 227.437C393.911 224.841 386.755 218.649 383.726 210.229C380.807 202.117 381.049 192.145 384.315 183.977C387.671 175.587 395.22 167.255 407.461 167.461C414.947 167.587 420.981 170.509 425.743 174.678C425.535 173.482 425.318 172.305 425.079 171.154C423.772 164.846 422.078 159.528 420.271 155.596C419.369 153.635 418.509 152.167 417.759 151.144C417.002 150.11 416.555 149.798 416.549 149.793C414.277 148.359 412.323 148.511 410.641 149.344C408.638 150.336 407.238 152.234 406.866 153.913L388.314 149.797C390 142.193 395.344 135.715 402.205 132.315ZM407.142 186.462C405.341 186.432 403.466 187.269 401.96 191.034C400.365 195.022 400.311 200.194 401.607 203.796C402.269 205.633 404.068 207.907 408.453 209.097C411.788 210.002 416.657 210.237 423.199 208.812C421.842 203.491 419.991 198.498 417.648 194.529C414.133 188.574 410.597 186.52 407.142 186.462Z" fill="white"/>
<path d="M376.291 163.713C369.54 166.648 354.934 174.324 344.453 184.698C346.296 187.532 349.187 190.891 353.497 193.851C358.397 197.216 365.447 200.288 375.452 201.297C375.452 201.297 375.799 206.327 377.292 211.077C378.786 215.828 382.217 220.647 382.217 220.647C365.038 220.577 352.136 215.971 342.738 209.516C331.829 202.025 326.262 192.469 324.086 186.184L322.342 181.149L325.73 177.035C339.005 160.916 360.204 149.985 368.715 146.284L376.291 163.713Z" fill="white"/>
<path d="M342.231 105.879C336.331 129.144 334.456 179.42 341.594 219.802C341.675 220.261 341.758 220.719 341.841 221.175L323.147 224.594C323.057 224.1 322.969 223.605 322.881 223.109C315.376 180.65 317.12 127.592 323.811 101.206L342.231 105.879Z" fill="white"/>
<path d="M311.905 163.191C311.37 175.606 312.488 205.966 317.025 224.475L298.566 229C293.433 208.06 292.339 175.489 292.914 162.153C292.914 162.153 296.429 165.177 302.107 165.578C307.786 165.978 311.905 163.191 311.905 163.191Z" fill="white"/>
<path d="M313.707 147.833C314.194 153.643 309.88 158.749 304.069 159.237C298.259 159.724 293.153 155.41 292.666 149.599C292.178 143.789 296.492 138.683 302.303 138.195C308.113 137.708 313.219 142.022 313.707 147.833Z" fill="white"/>
<path d="M229.109 143.869C225.009 131.206 217.901 125.976 215.619 124.533C228.124 123.794 246.588 126.1 250.535 126.586C253.867 117.51 257.929 105.886 260.118 101.134C260.118 101.134 269.208 104.483 277.754 108.092C272.324 121.811 269.553 129.853 269.553 129.853C279.439 131.916 288.632 134.881 292.105 136.059C285.851 141.462 285.474 149.44 287.333 154.481C256.687 144.95 234.25 143.975 229.109 143.869Z" fill="white"/>
<path d="M242.53 151.223C248.803 151.971 257.218 153.379 261.39 154.339C255.704 173.203 252.268 189.153 253.377 198.965C257.892 195.476 261.754 191.029 263.343 189.05L277.999 201.129C271.321 208.581 258.156 224.601 245.06 218.328C226.823 209.593 235.733 174.621 242.53 151.223Z" fill="white"/>
<path d="M188.992 127.277C196.438 124.307 205.462 124.779 213.289 130.651C218.245 134.369 221.32 140.603 223.324 146.383C225.469 152.57 226.98 160.014 227.814 167.963C229.472 183.764 228.573 202.752 223.664 219.76L223.674 219.789C223.668 219.791 223.66 219.793 223.654 219.795C223.64 219.842 223.629 219.89 223.615 219.937L223.339 219.901C208.202 225.078 195.228 225.899 184.974 222.956C174.452 219.935 166.862 212.861 164.31 203.455C162.052 195.135 163.096 185.214 167.008 177.335C171.027 169.241 179.221 161.543 191.407 162.732C198.869 163.46 204.639 166.847 209.048 171.39C209.003 170.905 208.964 170.423 208.914 169.945C208.188 163.03 206.919 157.079 205.369 152.608C204.596 150.377 203.809 148.677 203.091 147.473C202.365 146.256 201.901 145.866 201.885 145.852C199.736 144.239 197.776 144.233 196.032 144.928C193.956 145.756 192.408 147.535 191.901 149.179L173.74 143.587C176.032 136.143 181.879 130.114 188.992 127.277ZM189.562 181.645C187.769 181.47 185.831 182.155 184.028 185.787C182.118 189.634 181.648 194.785 182.65 198.479C183.192 200.475 185.029 203.201 190.217 204.69C193.436 205.614 197.917 206.008 203.77 205.22C202.97 200.535 201.774 196.015 200.122 192.148C196.961 184.751 193.267 182.006 189.562 181.645Z" fill="white"/>
<path d="M117.243 142.14C116.745 133.431 116.269 114.05 116.385 104.388L135.408 104.442C135.242 111.159 135.587 127.469 135.975 136.455C144.14 134.426 156.098 131.617 161.938 130.576L163.499 149.657C136.555 155.208 117.359 161.857 105.564 166.078L99.0879 148.154C102.857 146.777 112.499 143.459 117.243 142.14Z" fill="white"/>
<path d="M119.056 168.002C124.195 166.148 133.354 163.316 137.646 162.349C140.479 190.532 142.826 197.844 146.891 206.651C149.511 202.147 151.355 196.958 152.352 193.656L156.808 195.08C157.301 207.599 161.179 212.462 163.847 216.431C160.435 221.084 154.501 229.675 143.686 227.254C130.177 224.23 122.571 204.111 119.056 168.002Z" fill="white"/>
<path d="M466.786 223.882C445.302 218.408 451.041 178.961 454.744 155.68C461.768 155.896 470.036 156.364 473.907 156.716C468.136 191.075 470.647 200.439 471.294 203.128C473.896 200.769 478.129 195.104 479.888 192.113L495.992 202.285C490.258 210.48 479.473 227.114 466.786 223.882Z" fill="white"/>
</svg>
