<svg width="32" height="32" viewBox="0 0 32 32" fill="none" xmlns="http://www.w3.org/2000/svg">
  <!-- Background circle -->
  <circle cx="16" cy="16" r="15" fill="#FF6B6B" stroke="#FFA94D" stroke-width="2"/>
  
  <!-- Sound waves representing podcast -->
  <path d="M8 16 C8 12, 12 8, 16 8 C20 8, 24 12, 24 16 C24 20, 20 24, 16 24 C12 24, 8 20, 8 16 Z" fill="none" stroke="#FFFFFF" stroke-width="1.5" opacity="0.3"/>
  <path d="M10 16 C10 13, 13 10, 16 10 C19 10, 22 13, 22 16 C22 19, 19 22, 16 22 C13 22, 10 19, 10 16 Z" fill="none" stroke="#FFFFFF" stroke-width="2" opacity="0.6"/>
  
  <!-- Central microphone/speaker icon -->
  <circle cx="16" cy="16" r="4" fill="#FFFFFF"/>
  <circle cx="16" cy="16" r="2" fill="#FF6B6B"/>
  
  <!-- Small decorative elements -->
  <circle cx="16" cy="8" r="1" fill="#FFA94D" opacity="0.7"/>
  <circle cx="24" cy="16" r="1" fill="#FFA94D" opacity="0.7"/>
  <circle cx="16" cy="24" r="1" fill="#FFA94D" opacity="0.7"/>
  <circle cx="8" cy="16" r="1" fill="#FFA94D" opacity="0.7"/>
</svg>
