<svg width="3140" height="988" viewBox="0 0 3140 988" fill="none" xmlns="http://www.w3.org/2000/svg">
<mask id="mask0_2058_5" style="mask-type:alpha" maskUnits="userSpaceOnUse" x="0" y="0" width="3140" height="988">
<rect width="3140" height="988" fill="#D9D9D9"/>
</mask>
<g mask="url(#mask0_2058_5)">
<path d="M2706.33 -291.753L2663.41 -78.7324C2734.94 -79.5581 2895.68 -77.2462 2966.37 -61.3936C3054.74 -41.5777 2996.67 59.9786 2991.62 116.949C2988.13 156.313 2972.59 205.137 2974.98 324.701C2985.1 326.171 2994.32 327.801 3002.37 329.606C3090.74 349.422 3032.67 450.979 3027.62 507.949C3022.57 564.92 2992.27 641.706 3027.62 924.082C2918.22 948.026 2615 1008.65 2559.46 874.894C2382.73 961.588 2199.52 1010.78 2088.43 906.743C2016.06 916.651 1843.03 912.192 1729.92 815.095C1731.61 838.213 1737.5 890.396 1747.6 914.175C1681.96 917.477 1527.95 933.494 1437.06 971.145L1323.45 772.986C1283.89 839.865 1159.34 1000.87 1043.21 867.111C836.181 941.421 614.008 995.915 518.069 812.618C481.882 905.092 381.736 1055.36 255.501 914.175C198.553 850.481 113.5 578.5 113.5 578.5L93.9199 515.38L51 389.054C68.6943 383.267 112.741 369.749 161.411 357.161C149.773 281.592 145.029 190.525 143.76 97.1328C122.721 101.261 76.0978 112.49 57.9199 124.38L15 -1.94629C35.1976 -8.55158 89.7311 -25.2295 146.284 -39.1006C147.126 -98.5481 151.334 -232.305 161.433 -291.753L295.241 -281.846L282.618 -61.3936C334.795 -63.8705 463.891 -68.8242 562.859 -68.8242C601.571 -115.887 707.777 -188.711 822.903 -103.503C874.239 -108.457 990.544 -117.869 1045.08 -115.888C1056.86 -162.951 1083.96 -265.498 1098.1 -299.185L1226.86 -262.029L1183.94 -108.456C1267.25 -96.8968 1455.09 -62.384 1539.92 -16.8076C1540.76 -74.6039 1550.02 -214.472 1580.31 -311.569L1711.6 -279.368C1694.77 -221.572 1677.9 -246.177 1688 -53.9629C1788.15 -126.621 2022.14 -90.622 2214.01 -118.364C2405.89 -146.106 2384.85 -86.9893 2350.35 -53.9629C2389.9 -61.3938 2480.11 -76.7508 2524.55 -78.7324C2534.65 -137.354 2557.88 -267.479 2570 -319L2706.33 -291.753Z" fill="black"/>
</g>
</svg>
