<svg width="284" height="184" viewBox="0 0 284 184" fill="none" xmlns="http://www.w3.org/2000/svg">
<path d="M176.411 65.2489C171.435 47.5078 169.329 29.1498 168.862 22.3795L152.236 23.4895C153.435 41.2772 157.839 60.9777 159.93 69.2298C167.059 66.881 173.726 65.5991 176.411 65.2489Z" fill="#B552E6"/>
<path d="M104.357 33.9747L90.3725 32.2177C89.1764 41.4557 88.017 63.5521 90.0846 79.0776C93.8231 78.8661 101.886 78.443 104.229 78.443C102.155 64.6441 103.208 42.8454 104.357 33.9747Z" fill="#31BADF"/>
<path d="M193.751 78.9574C191.78 66.4704 192.734 46.192 193.777 38.015L181.272 36.42C180.224 44.6298 179.209 64.0269 180.902 78.062C183.699 78.2985 190.186 78.8086 193.751 78.9574Z" fill="#15D170"/>
<path d="M130.501 0C128.549 15.266 126.657 51.7215 130.001 77.4381C135.873 77.3365 148.755 77.1944 153.302 77.4381C149.739 54.6254 151.481 17.7922 153.384 2.91176L141.307 1.37504C141.307 1.37504 140.689 3.45164 140.034 11.626C138.12 13.0692 136.575 14.0076 136.575 14.0076C136.575 14.0076 134.473 11.5563 133.773 10.5057C133.927 5.5929 134.943 0.565277 134.943 0.565277L130.501 0Z" fill="#F7661B"/>
<path d="M128.912 17.416L112.946 14.1197C108.9 34.0231 106.54 58.1489 107.266 78.378C111.925 78.1662 121.866 77.7427 124.356 77.7427C123.587 60.0066 124.038 41.9488 128.912 17.416Z" fill="#F65BB3"/>
<path d="M162.263 77.3324L180.459 77.9423C180.459 77.9423 178.706 73.2709 177.562 69.3079C173.069 69.9504 166.053 71.5825 161.044 73.2897C161.288 74.2558 161.913 76.2818 162.263 77.3324Z" fill="#B552E6"/>
<path d="M281.665 139.463C280.622 147.64 279.72 167.697 281.691 180.184L269.238 182.151C267.007 168.023 268.092 146.306 269.213 137.522C269.213 137.522 271.469 139.87 275.222 140.425C278.975 140.979 281.665 139.463 281.665 139.463Z" fill="#F7661B"/>
<path d="M283.869 129.339C283.869 133.207 280.733 136.343 276.865 136.343C272.997 136.343 269.861 133.207 269.861 129.339C269.861 125.471 272.997 122.335 276.865 122.335C280.733 122.335 283.869 125.471 283.869 129.339Z" fill="#F7661B"/>
<path d="M230.33 131.161C228.167 125.56 224.922 120.731 222.489 118.858C231.751 118.675 236.955 118.607 239.782 118.675C241.92 108.357 243.684 103.002 245.229 96.9487C245.229 96.9487 252.07 98.7168 257.418 100.185C255.577 106.813 252.684 119.484 252.684 119.484C258.652 119.994 266.081 120.874 269.032 121.331C267.448 122.855 266.014 125.35 265.757 127.919C265.446 131.044 266.173 132.686 266.561 133.715C266.561 133.715 258.369 132.541 248.424 131.756C238.48 130.97 230.33 131.161 230.33 131.161Z" fill="#15D170"/>
<path d="M201.838 119.86C206.604 117.499 212.596 117.328 218.085 120.794C221.4 122.887 223.683 126.571 225.278 130.04C226.977 133.738 228.354 138.227 229.357 143.067C231.36 152.736 232.024 164.538 230.327 175.622C230.145 176.81 229.935 177.992 229.696 179.165L229.704 179.185C229.7 179.187 229.695 179.188 229.691 179.19C229.684 179.221 229.679 179.253 229.673 179.284L229.491 179.275C228.418 179.741 227.363 180.172 226.324 180.565C225.953 180.705 225.584 180.84 225.217 180.971C216.564 184.062 208.915 184.655 202.681 182.963C196.336 181.241 191.589 177.133 189.579 171.547C187.642 166.166 187.803 159.551 189.97 154.132C192.196 148.566 197.204 143.039 205.325 143.175C210.291 143.259 214.294 145.197 217.453 147.963C217.315 147.169 217.171 146.389 217.013 145.625C216.145 141.441 215.022 137.913 213.823 135.304C213.225 134.003 212.654 133.03 212.156 132.35C211.654 131.665 211.357 131.458 211.353 131.454C209.846 130.503 208.55 130.604 207.434 131.156C206.105 131.815 205.177 133.074 204.93 134.188L192.622 131.457C193.741 126.413 197.286 122.115 201.838 119.86ZM205.113 155.781C203.918 155.761 202.674 156.316 201.675 158.813C200.617 161.459 200.582 164.89 201.441 167.279C201.88 168.498 203.073 170.007 205.983 170.796C208.195 171.397 211.425 171.553 215.765 170.608C214.865 167.077 213.637 163.765 212.083 161.132C209.75 157.181 207.405 155.819 205.113 155.781Z" fill="#31BADF"/>
<path d="M184.647 140.689C180.169 142.636 170.479 147.728 163.526 154.61C164.749 156.49 166.666 158.719 169.526 160.682C172.776 162.915 177.453 164.953 184.09 165.622C184.09 165.622 184.32 168.959 185.311 172.11C186.302 175.262 188.578 178.459 188.578 178.459C177.182 178.412 168.623 175.356 162.388 171.075C155.152 166.105 151.458 159.765 150.015 155.596L148.858 152.256L151.105 149.527C159.911 138.834 173.975 131.582 179.621 129.127L184.647 140.689Z" fill="#B552E6"/>
<path d="M162.052 102.322C158.138 117.756 156.894 151.109 161.629 177.898C161.683 178.203 161.738 178.506 161.793 178.809L149.392 181.077C149.332 180.75 149.273 180.421 149.215 180.092C144.236 151.925 145.393 116.726 149.832 99.2223L162.052 102.322Z" fill="#B552E6"/>
<path d="M141.933 140.343C141.578 148.578 142.32 168.72 145.329 180.998L133.084 184C129.679 170.109 128.953 148.501 129.335 139.654C129.335 139.654 131.666 141.66 135.433 141.926C139.2 142.192 141.933 140.343 141.933 140.343Z" fill="#F7661B"/>
<path d="M143.128 130.154C143.452 134.009 140.589 137.396 136.735 137.719C132.88 138.043 129.493 135.18 129.169 131.326C128.846 127.471 131.708 124.084 135.563 123.761C139.417 123.437 142.804 126.299 143.128 130.154Z" fill="#F7661B"/>
<path d="M86.9768 127.524C84.2563 119.124 79.541 115.654 78.0271 114.697C86.3232 114.207 98.5717 115.737 101.191 116.059C103.401 110.038 106.096 102.327 107.548 99.1742C107.548 99.1742 113.578 101.396 119.247 103.79C115.645 112.891 113.807 118.226 113.807 118.226C120.365 119.595 126.464 121.562 128.768 122.343C124.619 125.928 124.369 131.22 125.602 134.564C105.271 128.241 90.3871 127.595 86.9768 127.524Z" fill="#31BADF"/>
<path d="M95.8799 132.403C100.041 132.899 105.624 133.833 108.391 134.47C104.62 146.985 102.34 157.566 103.076 164.075C106.071 161.76 108.633 158.81 109.687 157.498L119.41 165.51C114.98 170.454 106.246 181.082 97.5584 176.92C85.4599 171.126 91.371 147.925 95.8799 132.403Z" fill="#31BADF"/>
<path d="M60.3631 116.517C65.303 114.547 71.2892 114.86 76.4819 118.756C79.7694 121.222 81.8097 125.358 83.1389 129.192C84.5616 133.296 85.5643 138.235 86.1176 143.508C87.2175 153.99 86.6211 166.587 83.3644 177.87L83.3713 177.889C83.3668 177.891 83.3621 177.892 83.3576 177.893C83.3486 177.925 83.341 177.957 83.3319 177.988L83.1485 177.964C73.1072 181.398 64.5 181.943 57.6976 179.99C50.7171 177.987 45.6822 173.293 43.989 167.054C42.4913 161.534 43.1837 154.953 45.779 149.726C48.4451 144.356 53.8814 139.25 61.965 140.038C66.9159 140.521 70.7432 142.768 73.6683 145.782C73.6387 145.46 73.6124 145.14 73.5791 144.823C73.0977 140.236 72.2557 136.288 71.2277 133.322C70.7146 131.842 70.1924 130.714 69.7162 129.915C69.2351 129.108 68.9271 128.849 68.9166 128.84C67.4908 127.77 66.1902 127.766 65.0338 128.227C63.6563 128.777 62.6292 129.957 62.2933 131.047L50.2448 127.337C51.7657 122.399 55.6447 118.399 60.3631 116.517ZM60.7411 152.585C59.5519 152.469 58.2665 152.923 57.0701 155.332C55.8031 157.884 55.491 161.302 56.1559 163.752C56.5154 165.077 57.7339 166.885 61.1758 167.873C63.3114 168.486 66.2838 168.747 70.167 168.224C69.6365 165.117 68.843 162.118 67.7468 159.553C65.6496 154.646 63.199 152.825 60.7411 152.585Z" fill="#F65BB3"/>
<path d="M12.7662 126.378C12.4356 120.6 12.12 107.743 12.1967 101.333L24.8164 101.369C24.7065 105.825 24.9352 116.645 25.1923 122.606C30.6096 121.26 38.5425 119.397 42.4166 118.706L43.4523 131.364C25.5776 135.047 12.8429 139.458 5.01795 142.258L0.721912 130.367C3.22222 129.453 9.61864 127.253 12.7662 126.378Z" fill="#15D170"/>
<path d="M13.9684 143.534C17.3775 142.304 23.4533 140.425 26.3003 139.784C28.1797 158.481 29.7371 163.331 32.4335 169.174C34.1717 166.186 35.395 162.744 36.0562 160.553L39.0128 161.498C39.3398 169.803 41.9126 173.029 43.6819 175.662C41.4187 178.748 37.4822 184.448 30.3075 182.842C21.3457 180.836 16.3001 167.489 13.9684 143.534Z" fill="#15D170"/>
<path d="M244.681 180.605C230.428 176.973 234.236 150.805 236.693 135.36C241.352 135.503 246.837 135.814 249.405 136.047C245.576 158.841 247.242 165.052 247.671 166.837C249.398 165.271 252.206 161.514 253.373 159.529L264.056 166.277C260.252 171.714 253.097 182.749 244.681 180.605Z" fill="#15D170"/>
</svg>
