<svg width="428" height="133" viewBox="0 0 428 133" fill="none" xmlns="http://www.w3.org/2000/svg">
<path d="M424.536 65.8656C422.964 78.1915 421.604 108.424 424.576 127.247L405.803 130.213C402.44 108.917 404.077 76.1808 405.766 62.9392C405.766 62.9392 409.166 66.4787 414.823 67.3148C420.481 68.1509 424.536 65.8656 424.536 65.8656Z" fill="#F7661B"/>
<path d="M427.858 50.604C427.858 56.4347 423.131 61.1615 417.301 61.1615C411.47 61.1615 406.743 56.4347 406.743 50.604C406.743 44.7732 411.47 40.0464 417.301 40.0464C423.131 40.0464 427.858 44.7732 427.858 50.604Z" fill="#F7661B"/>
<path d="M347.155 53.3513C343.895 44.9079 339.003 37.6291 335.335 34.8049C349.296 34.5288 357.142 34.4264 361.403 34.5288C364.625 18.9761 367.285 10.9034 369.613 1.77918C369.613 1.77918 379.926 4.44447 387.988 6.65738C385.211 16.6485 380.851 35.7492 380.851 35.7492C389.848 36.5171 401.046 37.8447 405.494 38.5335C403.107 40.8299 400.945 44.5914 400.558 48.4642C400.088 53.174 401.185 55.649 401.77 57.2006C401.77 57.2006 389.42 55.4307 374.43 54.247C359.441 53.0632 347.155 53.3513 347.155 53.3513Z" fill="#15D170"/>
<path d="M304.205 36.3155C311.389 32.7566 320.422 32.4997 328.696 37.7238C333.692 40.8785 337.135 46.4316 339.538 51.6611C342.1 57.236 344.175 64.0017 345.687 71.2977C348.707 85.8723 349.707 103.663 347.149 120.372C346.875 122.161 346.558 123.943 346.199 125.713L346.211 125.741C346.204 125.744 346.197 125.747 346.19 125.75C346.181 125.797 346.173 125.845 346.163 125.892L345.889 125.877C344.271 126.581 342.681 127.23 341.116 127.822C340.557 128.033 340 128.237 339.447 128.434C326.403 133.093 314.873 133.987 305.476 131.437C295.911 128.841 288.755 122.649 285.726 114.229C282.807 106.117 283.049 96.1454 286.315 87.9775C289.671 79.5867 297.22 71.255 309.461 71.4606C316.947 71.5865 322.981 74.5089 327.743 78.6777C327.535 77.4818 327.318 76.3052 327.079 75.1537C325.772 68.8461 324.078 63.5283 322.271 59.5957C321.369 57.6347 320.509 56.1674 319.759 55.1438C319.002 54.1098 318.555 53.7981 318.549 53.7932C316.277 52.3592 314.323 52.5107 312.641 53.3437C310.638 54.3363 309.238 56.2343 308.866 57.9131L290.314 53.7973C292 46.1932 297.344 39.7149 304.205 36.3155ZM309.142 90.4622C307.341 90.4321 305.466 91.2688 303.96 95.0337C302.365 99.0218 302.311 104.194 303.607 107.796C304.269 109.633 306.068 111.907 310.453 113.097C313.788 114.002 318.657 114.237 325.199 112.812C323.842 107.491 321.991 102.498 319.648 98.5288C316.133 92.5737 312.597 90.5203 309.142 90.4622Z" fill="#31BADF"/>
<path d="M278.291 67.7125C271.54 70.6477 256.934 78.3239 246.453 88.6977C248.296 91.5316 251.187 94.8911 255.497 97.8511C260.397 101.216 267.447 104.288 277.452 105.297C277.452 105.297 277.799 110.327 279.292 115.077C280.786 119.828 284.217 124.647 284.217 124.647C267.038 124.577 254.136 119.971 244.738 113.516C233.829 106.025 228.262 96.4688 226.086 90.1844L224.342 85.149L227.73 81.0352C241.005 64.9164 262.204 53.9846 270.715 50.2843L278.291 67.7125Z" fill="#B552E6"/>
<path d="M244.231 9.87885C238.331 33.1444 236.456 83.4196 243.594 123.802C243.675 124.261 243.758 124.719 243.841 125.175L225.147 128.594C225.057 128.1 224.969 127.605 224.881 127.109C217.376 84.6498 219.12 31.5916 225.811 5.2063L244.231 9.87885Z" fill="#B552E6"/>
<path d="M213.905 67.1914C213.37 79.6057 214.488 109.966 219.025 128.475L200.566 133C195.433 112.06 194.339 79.4891 194.914 66.1526C194.914 66.1526 198.429 69.1768 204.107 69.5775C209.786 69.9782 213.905 67.1914 213.905 67.1914Z" fill="#F7661B"/>
<path d="M215.707 51.8327C216.194 57.643 211.88 62.7487 206.069 63.2365C200.259 63.7244 195.153 59.4097 194.666 53.5993C194.178 47.789 198.492 42.6833 204.303 42.1954C210.113 41.7076 215.219 46.0223 215.707 51.8327Z" fill="#F7661B"/>
<path d="M131.109 47.869C127.009 35.2058 119.901 29.9763 117.619 28.5329C130.124 27.794 148.588 30.1005 152.535 30.5861C155.867 21.5098 159.929 9.88587 162.118 5.13409C162.118 5.13409 171.208 8.48327 179.754 12.0924C174.324 25.8112 171.553 33.8533 171.553 33.8533C181.439 35.916 190.632 38.8806 194.105 40.0587C187.851 45.4624 187.474 53.4404 189.333 58.4806C158.687 48.9497 136.25 47.9753 131.109 47.869Z" fill="#31BADF"/>
<path d="M144.53 55.223C150.803 55.9708 159.218 57.3792 163.39 58.3387C157.704 77.2031 154.268 93.1535 155.377 102.965C159.892 99.4762 163.754 95.029 165.343 93.0504L179.999 105.129C173.321 112.581 160.156 128.601 147.06 122.328C128.823 113.593 137.733 78.6214 144.53 55.223Z" fill="#31BADF"/>
<path d="M90.9919 31.277C98.4382 28.307 107.462 28.7789 115.289 34.6511C120.245 38.369 123.32 44.6034 125.324 50.3833C127.469 56.5697 128.98 64.0143 129.814 71.9626C131.472 87.7635 130.573 106.752 125.664 123.76L125.674 123.789C125.668 123.791 125.66 123.793 125.654 123.795C125.64 123.842 125.629 123.89 125.615 123.937L125.339 123.901C110.202 129.078 97.2278 129.899 86.9738 126.956C76.4515 123.935 68.862 116.861 66.3096 107.455C64.052 99.1349 65.0956 89.2143 69.0078 81.3352C73.0267 73.2411 81.2213 65.5434 93.4065 66.7322C100.869 67.4604 106.639 70.8468 111.048 75.3899C111.003 74.9054 110.964 74.4232 110.914 73.9448C110.188 67.0297 108.919 61.0786 107.369 56.6083C106.596 54.3768 105.809 52.6771 105.091 51.4728C104.365 50.2562 103.901 49.8658 103.885 49.8518C101.736 48.2394 99.7755 48.233 98.0324 48.9282C95.956 49.7564 94.4078 51.5355 93.9013 53.1789L75.7396 47.587C78.0322 40.143 83.8793 34.114 90.9919 31.277ZM91.5617 85.6449C89.769 85.4699 87.8315 86.1545 86.028 89.7866C84.1181 93.6336 83.6477 98.785 84.65 102.479C85.1919 104.475 87.0286 107.201 92.2169 108.69C95.436 109.614 99.9167 110.008 105.77 109.22C104.97 104.535 103.774 100.015 102.122 96.1481C98.9607 88.7513 95.2667 86.0065 91.5617 85.6449Z" fill="#F65BB3"/>
<path d="M19.2434 46.1405C18.745 37.4314 18.2693 18.0501 18.3849 8.38798L37.4078 8.44193C37.2421 15.1592 37.5869 31.4686 37.9745 40.4554C46.1404 38.4258 58.0985 35.6173 63.9383 34.5765L65.4995 53.6571C38.5553 59.2079 19.359 65.8572 7.56374 70.078L1.0879 52.1538C4.85685 50.7766 14.4988 47.4594 19.2434 46.1405Z" fill="#15D170"/>
<path d="M21.0564 72.002C26.1953 70.1475 35.3541 67.3158 39.6455 66.3493C42.4785 94.5324 44.8262 101.844 48.8907 110.651C51.5108 106.147 53.3548 100.958 54.3516 97.6563L58.8083 99.0798C59.3012 111.599 63.1795 116.462 65.8466 120.431C62.4349 125.084 56.5011 133.675 45.686 131.254C32.177 128.23 24.5713 108.111 21.0564 72.002Z" fill="#15D170"/>
<path d="M368.786 127.882C347.302 122.408 353.041 82.9614 356.744 59.6798C363.768 59.8962 372.036 60.3645 375.907 60.7164C370.136 95.0752 372.647 104.439 373.294 107.128C375.896 104.769 380.129 99.1043 381.888 96.1129L397.992 106.285C392.258 114.48 381.473 131.114 368.786 127.882Z" fill="#15D170"/>
</svg>
