<svg width="240" height="266" viewBox="0 0 240 266" fill="none" xmlns="http://www.w3.org/2000/svg">
<path d="M236.42 193.53C234.725 206.815 233.259 239.402 236.463 259.691L216.228 262.887C212.603 239.933 214.367 204.648 216.188 190.375C216.188 190.375 219.853 194.19 225.951 195.092C232.049 195.993 236.42 193.53 236.42 193.53Z" fill="black"/>
<path d="M240 177.08C240 183.364 234.906 188.459 228.621 188.459C222.336 188.459 217.241 183.364 217.241 177.08C217.241 170.795 222.336 165.7 228.621 165.7C234.906 165.7 240 170.795 240 177.08Z" fill="black"/>
<path d="M153.012 180.041C149.497 170.94 144.225 163.095 140.271 160.05C155.32 159.753 163.776 159.643 168.369 159.753C170.364 150.123 172.159 143.153 173.801 137.101C173.801 137.101 180.429 135.072 188.56 127.429C191.341 128.169 194.301 128.964 197.023 129.711C194.031 140.48 189.332 161.068 189.332 161.068C199.028 161.896 211.099 163.327 215.893 164.069C213.32 166.545 210.989 170.599 210.573 174.773C210.066 179.85 211.248 182.518 211.879 184.19C211.879 184.19 198.568 182.282 182.411 181.006C166.254 179.73 153.012 180.041 153.012 180.041Z" fill="black"/>
<path d="M78.7866 195.52C71.5101 198.684 55.7667 206.958 44.4699 218.14C46.4566 221.194 49.5724 224.815 54.2181 228.006C59.4992 231.632 67.0981 234.944 77.8824 236.031C77.8824 236.031 78.208 241.479 80.0462 247.125C81.8844 252.772 85.1473 256.889 85.1473 256.889C66.6603 256.803 52.7401 251.84 42.6207 244.891C30.8633 236.816 24.8622 226.516 22.5174 219.742L20.6371 214.315L24.2888 209.88C38.597 192.506 61.4473 180.724 70.6208 176.735L78.7866 195.52Z" fill="black"/>
<path d="M39.9855 143.38C35.3707 171.09 34.616 217.664 41.388 255.977C41.4755 256.472 41.5648 256.965 41.6547 257.457L21.5048 261.142C21.4074 260.61 21.3125 260.076 21.218 259.542C13.1287 213.776 15.0079 156.587 22.2204 128.147L28.2638 129.68C28.2638 129.68 29.9732 133.301 33.282 137.329C36.5907 141.356 39.9855 143.38 39.9855 143.38Z" fill="black"/>
<path d="M176.329 260.375C153.172 254.475 159.357 211.957 163.349 186.862C170.92 187.095 179.831 187.6 184.004 187.979C177.784 225.014 180.49 235.106 181.187 238.005C183.992 235.462 188.555 229.356 190.451 226.132L207.809 237.096C201.628 245.93 190.003 263.858 176.329 260.375Z" fill="black"/>
<path d="M106.718 161.678C114.461 157.843 124.197 157.566 133.115 163.197C138.501 166.597 142.211 172.582 144.802 178.219C147.563 184.228 149.8 191.52 151.43 199.385C154.685 215.094 155.763 234.27 153.005 252.28C152.71 254.209 152.368 256.13 151.981 258.036L151.994 258.068C151.987 258.071 151.979 258.073 151.972 258.076C151.962 258.127 151.953 258.179 151.943 258.23L151.647 258.214C149.904 258.972 148.189 259.673 146.502 260.31C145.899 260.538 145.3 260.758 144.704 260.97C130.644 265.992 118.216 266.955 108.087 264.206C97.7778 261.408 90.0648 254.735 86.799 245.659C83.6528 236.915 83.914 226.167 87.4347 217.363C91.0514 208.319 99.1888 199.339 112.383 199.56C120.452 199.696 126.956 202.846 132.089 207.339C131.864 206.05 131.63 204.782 131.373 203.541C129.964 196.742 128.138 191.01 126.19 186.771C125.218 184.658 124.291 183.076 123.483 181.973C122.666 180.858 122.184 180.522 122.178 180.517C119.73 178.971 117.623 179.135 115.81 180.033C113.651 181.103 112.142 183.148 111.741 184.958L91.7443 180.522C93.5625 172.325 99.3221 165.343 106.718 161.678ZM112.039 220.041C110.098 220.009 108.076 220.911 106.453 224.969C104.734 229.268 104.676 234.843 106.073 238.724C106.786 240.705 108.725 243.156 113.452 244.439C117.046 245.414 122.294 245.668 129.346 244.132C127.884 238.396 125.888 233.015 123.363 228.736C119.574 222.317 115.763 220.104 112.039 220.041Z" fill="black"/>
<path d="M230.609 70.9205C230.032 84.3014 231.238 117.026 236.128 136.976L216.232 141.853C210.699 119.283 209.52 84.1757 210.14 69.8008C210.14 69.8008 213.928 73.0605 220.049 73.4924C226.17 73.9243 230.609 70.9205 230.609 70.9205Z" fill="black"/>
<path d="M232.551 54.3659C233.077 60.6286 228.426 66.1319 222.163 66.6577C215.901 67.1835 210.397 62.5328 209.872 56.2701C209.346 50.0073 213.996 44.504 220.259 43.9782C226.522 43.4524 232.025 48.1031 232.551 54.3659Z" fill="black"/>
<path d="M98.0766 32.2096C106.103 29.0083 115.829 29.5169 124.266 35.8464C129.607 39.8538 132.922 46.5736 135.082 52.8036C137.394 59.4717 139.023 67.496 139.922 76.0632C141.709 93.0944 140.74 113.562 135.448 131.894L135.46 131.925C135.452 131.927 135.445 131.929 135.437 131.931C135.423 131.982 135.41 132.034 135.396 132.085L135.098 132.046C118.783 137.626 104.798 138.511 93.7457 135.339C82.4041 132.083 74.2236 124.457 71.4725 114.32C69.0391 105.351 70.1639 94.6582 74.3807 86.1656C78.7126 77.4413 87.5453 69.1441 100.679 70.4255C108.723 71.2104 114.942 74.8605 119.695 79.7574C119.646 79.2352 119.604 78.7154 119.55 78.1998C118.767 70.7462 117.399 64.3317 115.729 59.5133C114.895 57.1081 114.047 55.276 113.273 53.978C112.492 52.6666 111.991 52.2458 111.974 52.2307C109.658 50.4928 107.544 50.4858 105.665 51.2352C103.427 52.1279 101.759 54.0455 101.213 55.8169L81.6367 49.7896C84.1078 41.7659 90.4103 35.2675 98.0766 32.2096ZM98.6908 90.8108C96.7585 90.6223 94.6702 91.3602 92.7263 95.2751C90.6676 99.4217 90.1606 104.974 91.2409 108.955C91.825 111.107 93.8047 114.045 99.397 115.651C102.867 116.646 107.696 117.071 114.006 116.222C113.144 111.172 111.855 106.3 110.073 102.132C106.666 94.1592 102.684 91.2006 98.6908 90.8108Z" fill="black"/>
<path d="M20.7424 48.2304C20.2052 38.8432 19.6924 17.9528 19.817 7.53831L40.3211 7.59646C40.1426 14.8368 40.5142 32.4161 40.932 42.1027C49.7337 39.9151 62.6229 36.8878 68.9175 35.766L70.6002 56.3324C41.558 62.3153 20.867 69.4824 8.15326 74.0319L1.17317 54.712C5.2356 53.2276 15.6283 49.652 20.7424 48.2304Z" fill="black"/>
<path d="M141.319 50.0938C136.899 36.4445 129.237 30.8079 126.778 29.252C140.257 28.4556 160.158 30.9417 164.413 31.4651C168.004 21.6821 172.382 9.15305 174.742 4.03127C174.742 4.03127 184.54 7.64124 193.751 11.5314C187.899 26.3184 184.912 34.9868 184.912 34.9868C195.567 37.21 205.476 40.4055 209.219 41.6753C202.479 47.4997 202.072 56.099 204.076 61.5316C171.043 51.2586 146.86 50.2083 141.319 50.0938Z" fill="black"/>
<path d="M155.784 58.0204C162.545 58.8264 171.616 60.3445 176.113 61.3787C169.984 81.712 166.281 98.9044 167.476 109.48C172.342 105.719 176.505 100.926 178.218 98.7932L194.015 111.812C186.817 119.845 172.627 137.112 158.511 130.351C138.854 120.936 148.458 83.2407 155.784 58.0204Z" fill="black"/>
<path d="M22.6963 76.1061C28.2353 74.1072 38.1073 71.055 42.7329 70.0132C45.7865 100.391 48.3169 108.272 52.6979 117.765C55.5221 112.91 57.5097 107.317 58.5841 103.758L63.3878 105.292C63.9191 118.786 68.0993 124.028 70.9741 128.306C67.2968 133.321 60.901 142.582 49.2437 139.972C34.6828 136.712 26.4849 115.027 22.6963 76.1061Z" fill="black"/>
</svg>
