<svg width="209" height="160" viewBox="0 0 209 160" fill="none" xmlns="http://www.w3.org/2000/svg">
<path d="M173.813 129.668C163.926 94.4116 159.739 57.9291 158.811 44.4744L125.771 46.6804C128.154 82.0297 136.905 121.18 141.06 137.58C155.229 132.912 168.478 130.364 173.813 129.668Z" fill="#B552E6"/>
<path d="M30.621 67.5176L2.83044 64.0258C0.453323 82.3843 -1.85063 126.296 2.25823 157.15C9.68767 156.73 25.7107 155.889 30.3675 155.889C26.2461 128.467 28.3384 85.1462 30.621 67.5176Z" fill="#31BADF"/>
<path d="M208.274 156.911C204.356 132.096 206.253 91.7967 208.326 75.5467L183.474 72.377C181.392 88.6922 179.374 127.24 182.738 155.132C188.298 155.601 201.189 156.615 208.274 156.911Z" fill="#15D170"/>
<path d="M82.5769 0C78.698 30.338 74.938 102.785 81.5846 153.892C93.2543 153.69 118.853 153.407 127.891 153.892C120.809 108.556 124.271 35.3582 128.052 5.7865L104.052 2.73259C104.052 2.73259 102.825 6.8594 101.522 23.1042C97.7188 25.9723 94.6477 27.8371 94.6477 27.8371C94.6477 27.8371 90.4721 22.9656 89.0802 20.8778C89.3854 11.1147 91.4054 1.12337 91.4054 1.12337L82.5769 0Z" fill="#F7661B"/>
<path d="M79.4182 34.6105L47.6892 28.06C39.6497 67.6137 34.9584 115.559 36.4026 155.759C45.6611 155.339 65.4155 154.497 70.3653 154.497C68.8372 119.25 69.732 83.3644 79.4182 34.6105Z" fill="#F65BB3"/>
<path d="M145.697 153.682L181.856 154.894C181.856 154.894 178.374 145.61 176.099 137.735C167.171 139.011 153.228 142.255 143.273 145.648C143.758 147.568 145.001 151.594 145.697 153.682Z" fill="#B552E6"/>
</svg>
