<svg width="454" height="474" viewBox="0 0 454 474" fill="none" xmlns="http://www.w3.org/2000/svg">
<path d="M343.42 295.53C341.725 308.815 340.259 341.402 343.463 361.691L323.228 364.887C319.603 341.933 321.367 306.648 323.188 292.375C323.188 292.375 326.853 296.19 332.951 297.092C339.049 297.993 343.42 295.53 343.42 295.53Z" fill="white"/>
<path d="M347 279.08C347 285.364 341.906 290.459 335.621 290.459C329.336 290.459 324.241 285.364 324.241 279.08C324.241 272.795 329.336 267.7 335.621 267.7C341.906 267.7 347 272.795 347 279.08Z" fill="white"/>
<path d="M260.012 282.041C256.497 272.94 251.225 265.095 247.271 262.05C262.32 261.753 270.776 261.643 275.369 261.753C277.364 252.123 279.159 245.153 280.801 239.101C280.801 239.101 287.429 237.072 295.56 229.429C298.341 230.169 301.301 230.964 304.023 231.711C301.031 242.48 296.332 263.068 296.332 263.068C306.028 263.896 318.099 265.327 322.893 266.069C320.32 268.545 317.989 272.599 317.573 276.773C317.066 281.85 318.248 284.518 318.879 286.19C318.879 286.19 305.568 284.282 289.411 283.006C273.254 281.73 260.012 282.041 260.012 282.041Z" fill="white"/>
<path d="M185.787 297.52C178.51 300.684 162.767 308.958 151.47 320.14C153.457 323.194 156.572 326.815 161.218 330.006C166.499 333.632 174.098 336.944 184.882 338.031C184.882 338.031 185.208 343.479 187.046 349.125C188.884 354.772 192.147 358.889 192.147 358.889C173.66 358.803 159.74 353.84 149.621 346.891C137.863 338.816 131.862 328.516 129.517 321.742L127.637 316.315L131.289 311.88C145.597 294.506 168.447 282.724 177.621 278.735L185.787 297.52Z" fill="white"/>
<path d="M146.986 245.38C142.371 273.09 141.616 319.664 148.388 357.977C148.476 358.472 148.565 358.965 148.655 359.457L128.505 363.142C128.407 362.61 128.313 362.076 128.218 361.542C120.129 315.776 122.008 258.587 129.22 230.147L135.264 231.68C135.264 231.68 136.973 235.301 140.282 239.329C143.591 243.356 146.986 245.38 146.986 245.38Z" fill="white"/>
<path d="M283.329 362.375C260.172 356.475 266.357 313.957 270.349 288.862C277.92 289.095 286.831 289.6 291.004 289.979C284.784 327.014 287.49 337.106 288.187 340.005C290.992 337.462 295.555 331.356 297.451 328.132L314.809 339.096C308.628 347.93 297.003 365.858 283.329 362.375Z" fill="white"/>
<path d="M213.718 263.678C221.461 259.843 231.197 259.566 240.115 265.197C245.501 268.597 249.211 274.582 251.802 280.219C254.563 286.228 256.8 293.52 258.43 301.385C261.685 317.094 262.763 336.27 260.005 354.28C259.71 356.209 259.368 358.13 258.981 360.036L258.994 360.068C258.987 360.071 258.979 360.073 258.972 360.076C258.962 360.127 258.953 360.179 258.943 360.23L258.647 360.214C256.904 360.972 255.189 361.673 253.502 362.31C252.899 362.538 252.3 362.758 251.704 362.97C237.644 367.992 225.216 368.955 215.087 366.206C204.778 363.408 197.065 356.735 193.799 347.659C190.653 338.915 190.914 328.167 194.435 319.363C198.051 310.319 206.189 301.339 219.383 301.56C227.452 301.696 233.956 304.846 239.089 309.339C238.864 308.05 238.63 306.782 238.373 305.541C236.964 298.742 235.138 293.01 233.19 288.771C232.218 286.658 231.291 285.076 230.483 283.973C229.666 282.858 229.184 282.522 229.178 282.517C226.73 280.971 224.623 281.135 222.81 282.033C220.651 283.103 219.142 285.148 218.741 286.958L198.744 282.522C200.563 274.325 206.322 267.343 213.718 263.678ZM219.039 322.041C217.098 322.009 215.076 322.911 213.453 326.969C211.734 331.268 211.676 336.843 213.073 340.724C213.786 342.705 215.725 345.156 220.452 346.439C224.046 347.414 229.294 347.668 236.346 346.132C234.884 340.396 232.888 335.015 230.363 330.736C226.574 324.317 222.763 322.104 219.039 322.041Z" fill="white"/>
<path d="M337.609 172.92C337.032 186.301 338.238 219.026 343.128 238.976L323.232 243.853C317.699 221.283 316.52 186.176 317.14 171.801C317.14 171.801 320.928 175.061 327.049 175.492C333.17 175.924 337.609 172.92 337.609 172.92Z" fill="white"/>
<path d="M339.551 156.366C340.077 162.629 335.426 168.132 329.163 168.658C322.901 169.184 317.397 164.533 316.872 158.27C316.346 152.007 320.996 146.504 327.259 145.978C333.522 145.452 339.025 150.103 339.551 156.366Z" fill="white"/>
<path d="M205.077 134.21C213.103 131.008 222.829 131.517 231.266 137.846C236.607 141.854 239.922 148.574 242.082 154.804C244.394 161.472 246.023 169.496 246.922 178.063C248.709 195.094 247.74 215.562 242.448 233.894L242.46 233.925C242.452 233.927 242.445 233.929 242.437 233.931C242.423 233.982 242.41 234.034 242.396 234.085L242.098 234.046C225.783 239.626 211.798 240.511 200.746 237.339C189.404 234.083 181.224 226.457 178.472 216.32C176.039 207.351 177.164 196.658 181.381 188.166C185.713 179.441 194.545 171.144 207.679 172.425C215.723 173.21 221.942 176.861 226.695 181.757C226.646 181.235 226.604 180.715 226.55 180.2C225.767 172.746 224.399 166.332 222.729 161.513C221.895 159.108 221.047 157.276 220.273 155.978C219.492 154.667 218.991 154.246 218.974 154.231C216.658 152.493 214.544 152.486 212.665 153.235C210.427 154.128 208.759 156.046 208.213 157.817L188.637 151.79C191.108 143.766 197.41 137.267 205.077 134.21ZM205.691 192.811C203.759 192.622 201.67 193.36 199.726 197.275C197.668 201.422 197.161 206.974 198.241 210.955C198.825 213.107 200.805 216.045 206.397 217.651C209.867 218.646 214.696 219.071 221.006 218.222C220.144 213.172 218.855 208.3 217.073 204.132C213.666 196.159 209.684 193.201 205.691 192.811Z" fill="white"/>
<path d="M127.742 150.23C127.205 140.843 126.692 119.953 126.817 109.538L147.321 109.596C147.143 116.837 147.514 134.416 147.932 144.103C156.734 141.915 169.623 138.888 175.918 137.766L177.6 158.332C148.558 164.315 127.867 171.482 115.153 176.032L108.173 156.712C112.236 155.228 122.628 151.652 127.742 150.23Z" fill="white"/>
<path d="M248.319 152.094C243.899 138.445 236.237 132.808 233.778 131.252C247.257 130.456 267.158 132.942 271.413 133.465C275.004 123.682 279.382 111.153 281.742 106.031C281.742 106.031 291.54 109.641 300.751 113.531C294.899 128.318 291.912 136.987 291.912 136.987C302.567 139.21 312.476 142.405 316.219 143.675C309.479 149.5 309.072 158.099 311.076 163.532C278.043 153.259 253.86 152.208 248.319 152.094Z" fill="white"/>
<path d="M262.784 160.02C269.545 160.826 278.616 162.345 283.113 163.379C276.984 183.712 273.281 200.904 274.476 211.48C279.342 207.719 283.505 202.926 285.218 200.793L301.015 213.812C293.817 221.845 279.627 239.112 265.511 232.351C245.854 222.936 255.458 185.241 262.784 160.02Z" fill="white"/>
<path d="M129.696 178.106C135.235 176.107 145.107 173.055 149.733 172.013C152.787 202.391 155.317 210.272 159.698 219.765C162.522 214.91 164.51 209.317 165.584 205.758L170.388 207.292C170.919 220.786 175.099 226.028 177.974 230.306C174.297 235.321 167.901 244.582 156.244 241.972C141.683 238.712 133.485 217.027 129.696 178.106Z" fill="white"/>
</svg>
