<svg width="444" height="344" viewBox="0 0 444 344" fill="none" xmlns="http://www.w3.org/2000/svg">
<path d="M256.411 145.249C251.435 127.508 249.329 109.15 248.862 102.379L232.236 103.49C233.435 121.277 237.839 140.978 239.93 149.23C247.059 146.881 253.726 145.599 256.411 145.249Z" fill="white"/>
<path d="M184.357 113.975L170.373 112.218C169.176 121.456 168.017 143.552 170.085 159.078C173.823 158.866 181.886 158.443 184.229 158.443C182.155 144.644 183.208 122.845 184.357 113.975Z" fill="white"/>
<path d="M273.751 158.957C271.78 146.47 272.734 126.192 273.777 118.015L261.272 116.42C260.224 124.63 259.209 144.027 260.902 158.062C263.699 158.298 270.186 158.809 273.751 158.957Z" fill="white"/>
<path d="M210.501 80C208.549 95.266 206.657 131.722 210.001 157.438C215.873 157.337 228.755 157.194 233.302 157.438C229.739 134.625 231.481 97.7922 233.384 82.9118L221.307 81.375C221.307 81.375 220.689 83.4516 220.034 91.626C218.12 93.0692 216.575 94.0076 216.575 94.0076C216.575 94.0076 214.473 91.5563 213.773 90.5057C213.927 85.5929 214.943 80.5653 214.943 80.5653L210.501 80Z" fill="white"/>
<path d="M208.912 97.416L192.946 94.1197C188.9 114.023 186.54 138.149 187.266 158.378C191.925 158.166 201.866 157.743 204.356 157.743C203.587 140.007 204.038 121.949 208.912 97.416Z" fill="white"/>
<path d="M242.263 157.332L260.459 157.942C260.459 157.942 258.706 153.271 257.562 149.308C253.069 149.95 246.053 151.582 241.044 153.29C241.288 154.256 241.913 156.282 242.263 157.332Z" fill="white"/>
<path d="M361.665 219.463C360.622 227.64 359.72 247.697 361.691 260.184L349.238 262.151C347.007 248.023 348.092 226.306 349.213 217.522C349.213 217.522 351.469 219.87 355.222 220.425C358.975 220.979 361.665 219.463 361.665 219.463Z" fill="white"/>
<path d="M363.869 209.339C363.869 213.207 360.733 216.343 356.865 216.343C352.997 216.343 349.861 213.207 349.861 209.339C349.861 205.471 352.997 202.335 356.865 202.335C360.733 202.335 363.869 205.471 363.869 209.339Z" fill="white"/>
<path d="M310.33 211.161C308.167 205.56 304.922 200.731 302.489 198.858C311.751 198.675 316.955 198.607 319.782 198.675C321.92 188.357 323.684 183.002 325.229 176.949C325.229 176.949 332.07 178.717 337.418 180.185C335.577 186.813 332.684 199.484 332.684 199.484C338.652 199.994 346.081 200.874 349.032 201.331C347.448 202.855 346.014 205.35 345.757 207.919C345.446 211.044 346.173 212.686 346.561 213.715C346.561 213.715 338.369 212.541 328.424 211.756C318.48 210.97 310.33 211.161 310.33 211.161Z" fill="white"/>
<path d="M281.838 199.86C286.604 197.499 292.596 197.328 298.085 200.794C301.4 202.887 303.683 206.571 305.278 210.04C306.977 213.738 308.354 218.227 309.357 223.067C311.36 232.736 312.024 244.538 310.327 255.622C310.145 256.81 309.935 257.992 309.696 259.165L309.704 259.185C309.7 259.187 309.695 259.188 309.691 259.19C309.684 259.221 309.679 259.253 309.673 259.284L309.491 259.275C308.418 259.741 307.363 260.172 306.324 260.565C305.953 260.705 305.584 260.84 305.217 260.971C296.564 264.062 288.915 264.655 282.681 262.963C276.336 261.241 271.589 257.133 269.579 251.547C267.642 246.166 267.803 239.551 269.97 234.132C272.196 228.566 277.204 223.039 285.325 223.175C290.291 223.259 294.294 225.197 297.453 227.963C297.315 227.169 297.171 226.389 297.013 225.625C296.145 221.441 295.022 217.913 293.823 215.304C293.225 214.003 292.654 213.03 292.156 212.35C291.654 211.665 291.357 211.458 291.353 211.454C289.846 210.503 288.55 210.604 287.434 211.156C286.105 211.815 285.177 213.074 284.93 214.188L272.622 211.457C273.741 206.413 277.286 202.115 281.838 199.86ZM285.113 235.781C283.918 235.761 282.674 236.316 281.675 238.813C280.617 241.459 280.582 244.89 281.441 247.279C281.88 248.498 283.073 250.007 285.983 250.796C288.195 251.397 291.425 251.553 295.765 250.608C294.865 247.077 293.637 243.765 292.083 241.132C289.75 237.181 287.405 235.819 285.113 235.781Z" fill="white"/>
<path d="M264.647 220.689C260.169 222.636 250.479 227.728 243.526 234.61C244.749 236.49 246.666 238.719 249.526 240.682C252.776 242.915 257.453 244.953 264.09 245.622C264.09 245.622 264.32 248.959 265.311 252.11C266.302 255.262 268.578 258.459 268.578 258.459C257.182 258.412 248.623 255.356 242.388 251.075C235.152 246.105 231.458 239.765 230.015 235.596L228.858 232.256L231.105 229.527C239.911 218.834 253.975 211.582 259.621 209.127L264.647 220.689Z" fill="white"/>
<path d="M242.052 182.322C238.138 197.756 236.894 231.109 241.629 257.898C241.683 258.203 241.738 258.506 241.793 258.809L229.392 261.077C229.332 260.75 229.273 260.421 229.215 260.092C224.236 231.925 225.393 196.726 229.832 179.222L242.052 182.322Z" fill="white"/>
<path d="M221.933 220.343C221.578 228.578 222.32 248.72 225.329 260.998L213.084 264C209.679 250.109 208.953 228.501 209.335 219.654C209.335 219.654 211.666 221.66 215.433 221.926C219.2 222.192 221.933 220.343 221.933 220.343Z" fill="white"/>
<path d="M223.128 210.154C223.452 214.009 220.589 217.396 216.735 217.719C212.88 218.043 209.493 215.18 209.169 211.326C208.846 207.471 211.708 204.084 215.563 203.761C219.417 203.437 222.804 206.299 223.128 210.154Z" fill="white"/>
<path d="M166.977 207.524C164.256 199.124 159.541 195.654 158.027 194.697C166.323 194.207 178.572 195.737 181.191 196.059C183.401 190.038 186.096 182.327 187.548 179.174C187.548 179.174 193.578 181.396 199.247 183.79C195.645 192.891 193.807 198.226 193.807 198.226C200.365 199.595 206.464 201.562 208.768 202.343C204.619 205.928 204.369 211.22 205.602 214.564C185.271 208.241 170.387 207.595 166.977 207.524Z" fill="white"/>
<path d="M175.88 212.403C180.041 212.899 185.624 213.833 188.391 214.47C184.62 226.985 182.34 237.566 183.076 244.075C186.071 241.76 188.633 238.81 189.687 237.498L199.41 245.51C194.98 250.454 186.246 261.082 177.558 256.92C165.46 251.126 171.371 227.925 175.88 212.403Z" fill="white"/>
<path d="M140.363 196.517C145.303 194.547 151.289 194.86 156.482 198.756C159.769 201.222 161.81 205.358 163.139 209.192C164.562 213.296 165.564 218.235 166.118 223.508C167.217 233.99 166.621 246.587 163.364 257.87L163.371 257.889C163.367 257.891 163.362 257.892 163.358 257.893C163.349 257.925 163.341 257.957 163.332 257.988L163.149 257.964C153.107 261.398 144.5 261.943 137.698 259.99C130.717 257.987 125.682 253.293 123.989 247.054C122.491 241.534 123.184 234.953 125.779 229.726C128.445 224.356 133.881 219.25 141.965 220.038C146.916 220.521 150.743 222.768 153.668 225.782C153.639 225.46 153.612 225.14 153.579 224.823C153.098 220.236 152.256 216.288 151.228 213.322C150.715 211.842 150.192 210.714 149.716 209.915C149.235 209.108 148.927 208.849 148.917 208.84C147.491 207.77 146.19 207.766 145.034 208.227C143.656 208.777 142.629 209.957 142.293 211.047L130.245 207.337C131.766 202.399 135.645 198.399 140.363 196.517ZM140.741 232.585C139.552 232.469 138.267 232.923 137.07 235.332C135.803 237.884 135.491 241.302 136.156 243.752C136.515 245.077 137.734 246.885 141.176 247.873C143.311 248.486 146.284 248.747 150.167 248.224C149.636 245.117 148.843 242.118 147.747 239.553C145.65 234.646 143.199 232.825 140.741 232.585Z" fill="white"/>
<path d="M92.7662 206.378C92.4356 200.6 92.12 187.743 92.1967 181.333L104.816 181.369C104.706 185.825 104.935 196.645 105.192 202.606C110.61 201.26 118.542 199.397 122.417 198.706L123.452 211.364C105.578 215.047 92.8429 219.458 85.018 222.258L80.7219 210.367C83.2222 209.453 89.6186 207.253 92.7662 206.378Z" fill="white"/>
<path d="M93.9684 223.534C97.3775 222.304 103.453 220.425 106.3 219.784C108.18 238.481 109.737 243.331 112.433 249.174C114.172 246.186 115.395 242.744 116.056 240.553L119.013 241.498C119.34 249.803 121.913 253.029 123.682 255.662C121.419 258.748 117.482 264.448 110.308 262.842C101.346 260.836 96.3001 247.489 93.9684 223.534Z" fill="white"/>
<path d="M324.681 260.605C310.428 256.973 314.236 230.805 316.693 215.36C321.352 215.503 326.837 215.814 329.405 216.047C325.576 238.841 327.242 245.052 327.671 246.837C329.398 245.271 332.206 241.514 333.373 239.529L344.056 246.277C340.252 251.714 333.097 262.749 324.681 260.605Z" fill="white"/>
</svg>
